<svg id="Layer_1" data-name="Layer 1" xmlns="http://www.w3.org/2000/svg" width="161.13" height="46" viewBox="0 0 161.13 46">
<defs>
<style>
.cls-1{fill:#38404d;}
.cls-2{fill:#005ce3;}
.cls-3{fill:#2970ff;}
.cls-4{fill:#1466c7;}
.cls-5{fill:#0047ad;}
.cls-6{fill:#4d9eff;}
.cls-7{fill:#478fff;}
.cls-8{fill:#002b6b;}
</style>
</defs>
<title>mindfield-onwhite</title>
<polygon class="cls-1" points="59.72 12.52 62.61 12.52 66.47 23.62 66.52 23.62 70.35 12.52 73.26 12.52 73.26 33.48 70.26 33.48 70.26 20.73 70.2 20.73 67.23 29.74 65.73 29.74 62.79 20.73 62.73 20.73 62.73 33.48 59.72 33.48 59.72 12.52"/>
<rect class="cls-1" x="76.03" y="12.52" width="3" height="20.96"/><polygon class="cls-1" points="81.68 12.52 84.57 12.52 89.1 25.15 89.16 25.15 89.16 12.52 92.16 12.52 92.16 33.48 89.34 33.48 84.75 20.88 84.69 20.88 84.69 33.48 81.68 33.48 81.68 12.52"/>
<path class="cls-1" d="M97.73,30.65h1.38a2.22,2.22,0,0,0,1.8-.63,3.06,3.06,0,0,0,.53-2V17.94a3.17,3.17,0,0,0-.5-1.91,2.13,2.13,0,0,0-1.83-.68H97.73V30.65Zm-3-18.13h4.44a5.14,5.14,0,0,1,3.92,1.43,5.57,5.57,0,0,1,1.35,4v9.8A5.85,5.85,0,0,1,103,32.08a5.63,5.63,0,0,1-4.11,1.4H94.72v-21Z"/>
<polygon class="cls-1" points="107.05 12.52 115.99 12.52 115.99 15.35 110.05 15.35 110.05 21.7 115.23 21.7 115.23 24.53 110.05 24.53 110.05 33.48 107.05 33.48 107.05 12.52"/><rect class="cls-1" x="117.95" y="12.52" width="3" height="20.96"/>
<polygon class="cls-1" points="123.72 12.52 132.67 12.52 132.67 15.35 126.72 15.35 126.72 21.5 131.9 21.5 131.9 24.32 126.72 24.32 126.72 30.48 132.67 30.48 132.67 33.48 123.72 33.48 123.72 12.52"/>
<polygon class="cls-1" points="134.46 12.52 137.46 12.52 137.46 30.48 143.41 30.48 143.41 33.48 134.46 33.48 134.46 12.52"/>
<path class="cls-1" d="M148.21,30.65h1.38a2.22,2.22,0,0,0,1.8-.63,3.06,3.06,0,0,0,.53-2V17.94a3.17,3.17,0,0,0-.5-1.91,2.13,2.13,0,0,0-1.82-.68h-1.38V30.65Zm-3-18.13h4.45a5.14,5.14,0,0,1,3.92,1.43,5.57,5.57,0,0,1,1.35,4v9.8a5.85,5.85,0,0,1-1.43,4.34,5.63,5.63,0,0,1-4.11,1.4h-4.18v-21Z"/>
<path class="cls-2" d="M23,15.33L11.5,7.67,0,0V46l0.06,0h0l0.11-.08,0.25-.16,0.26-.17L1.48,45l0.05,0,10-6.64,4.56-3L23,30.67l6.13,4.09,5.37,3.58L44.44,45l0.06,0,1.34,0.9h0l0.07,0L46,46V30.67h0V15.33h0V0Z"/><polygon class="cls-3" points="0 0 11.5 7.67 0 15.33 0 0"/>
<polygon class="cls-4" points="11.5 23 0 15.33 11.5 7.67 11.5 23"/>
<polygon class="cls-2" points="11.5 38.33 0 30.67 11.5 23 11.5 38.33"/>
<polygon class="cls-5" points="0 15.33 11.5 23 0 30.67 0 15.33"/>
<polygon class="cls-6" points="11.5 7.67 23 15.33 11.5 23 11.5 7.67"/>
<polygon class="cls-3" points="11.5 23 23 30.67 11.5 38.33 11.5 23"/>
<polygon class="cls-7" points="0 30.67 11.5 38.33 0 46 0 30.67"/>
<polygon class="cls-3" points="46 46 34.5 38.33 46 30.67 46 46"/>
<polygon class="cls-4" points="34.5 23 46 30.67 34.5 38.33 34.5 23"/>
<polygon class="cls-2" points="34.5 7.67 46 15.33 34.5 23 34.5 7.67"/>
<polygon class="cls-8" points="23 15.33 11.5 23 23 30.67 34.5 23 23 15.33"/>
<polygon class="cls-5" points="46 30.67 34.5 23 46 15.33 46 30.67"/>
<polygon class="cls-6" points="34.5 38.33 23 30.67 34.5 23 34.5 38.33"/>
<polygon class="cls-3" points="34.5 23 23 15.33 34.5 7.67 34.5 23"/>
<polygon class="cls-7" points="46 15.33 34.5 7.67 46 0 46 15.33"/>
<path class="cls-1" d="M158.64,17.27a2.5,2.5,0,1,1,2.5-2.5A2.5,2.5,0,0,1,158.64,17.27Zm0-4.44a1.94,1.94,0,1,0,1.91,1.94A1.88,1.88,0,0,0,158.64,12.84Zm0.45,3.27-0.48-1h-0.28v1h-0.59V13.44h1.08a0.84,0.84,0,0,1,.88.84,0.75,0.75,0,0,1-.49.7l0.56,1.12h-0.68Zm-0.35-2.17h-0.41v0.69h0.41A0.35,0.35,0,1,0,158.73,13.93Z"/>
</svg>
