<svg class="MuiSvgIcon-root menu" focusable="false" viewBox="0 0 24 24" aria-hidden="true" role="presentation">
    <g id="menuIcon"> 
        <path d="M20,5.3v1.3C20,6.9,19.8,7,19.5,7h-15C4.2,7,4,6.9,4,6.7V5.3C4,5.1,4.2,5,4.5,5h15C19.8,5,20,5.1,20,5.3z M19.5,11h-15 C4.2,11,4,11.1,4,11.3v1.3C4,12.9,4.2,13,4.5,13h15c0.3,0,0.5-0.1,0.5-0.3v-1.3C20,11.1,19.8,11,19.5,11z M19.5,17h-15 C4.2,17,4,17.1,4,17.3v1.3C4,18.9,4.2,19,4.5,19h15c0.3,0,0.5-0.1,0.5-0.3v-1.3C20,17.1,19.8,17,19.5,17z"></path>
    </g>
</svg>