<?xml version="1.0" encoding="utf-8"?>
<!-- Generator: Adobe Illustrator 19.2.1, SVG Export Plug-In . SVG Version: 6.00 Build 0)  -->
<svg version="1.1" id="Layer_1" xmlns="http://www.w3.org/2000/svg" xmlns:xlink="http://www.w3.org/1999/xlink" x="0px" y="0px"
	 width="155px" height="46px" viewBox="0 0 155 46" style="enable-background:new 0 0 155 46;" xml:space="preserve">
<style type="text/css">
	.st0{fill:#005CE3;}
	.st1{fill:#2970FF;}
	.st2{fill:#1466C7;}
	.st3{fill:#0047AD;}
	.st4{fill:#4D9EFF;}
	.st5{fill:#478FFF;}
	.st6{fill:#002B6B;}
	.st7{fill:#FFFFFF;}
</style>
<g id="mindfield">
	<path class="st0" d="M22.1,15.6L11.1,8.3L0,0.9v14.7v14.7v14.7c0,0,0,0,0.1,0l0,0c0,0,0.1,0,0.1-0.1l0.2-0.2c0.1,0,0.2-0.1,0.2-0.2
		l0.8-0.5c0,0,0,0,0.1,0l9.6-6.4l4.4-2.9c3.7-2.5,6.7-4.4,6.7-4.4l5.9,3.9c1.6,1.1,3.4,2.3,5.2,3.4l9.6,6.4c0,0,0,0,0.1,0l1.3,0.9
		c0,0,0,0,0,0l0.1,0c0,0,0.1,0,0.1,0V30.4v0V15.6v0V0.9L22.1,15.6z"/>
	<polygon class="st1" points="0,0.9 11.1,8.3 0,15.6 	"/>
	<polygon class="st2" points="11.1,23 0,15.6 11.1,8.3 	"/>
	<polygon class="st0" points="11.1,37.7 0,30.4 11.1,23 	"/>
	<polygon class="st3" points="0,15.6 11.1,23 0,30.4 	"/>
	<polygon class="st4" points="11.1,8.3 22.1,15.6 11.1,23 	"/>
	<polygon class="st1" points="11.1,23 22.1,30.4 11.1,37.7 	"/>
	<polygon class="st5" points="0,30.4 11.1,37.7 0,45.1 	"/>
	<polygon class="st1" points="44.2,45.1 33.2,37.7 44.2,30.4 	"/>
	<polygon class="st2" points="33.2,23 44.2,30.4 33.2,37.7 	"/>
	<polygon class="st0" points="33.2,8.3 44.2,15.6 33.2,23 	"/>
	<polygon class="st6" points="22.1,15.6 11.1,23 22.1,30.4 33.2,23 	"/>
	<polygon class="st3" points="44.2,30.4 33.2,23 44.2,15.6 	"/>
	<polygon class="st4" points="33.2,37.7 22.1,30.4 33.2,23 	"/>
	<polygon class="st1" points="33.2,23 22.1,15.6 33.2,8.3 	"/>
	<polygon class="st5" points="44.2,15.6 33.2,8.3 44.2,0.9 	"/>
	<polygon class="st7" points="57.5,12.9 60.2,12.9 63.9,23.6 64,23.6 67.7,12.9 70.5,12.9 70.5,33.1 67.6,33.1 67.6,20.8 67.5,20.8 
		64.7,29.5 63.2,29.5 60.4,20.8 60.3,20.8 60.3,33.1 57.5,33.1 	"/>
	<rect x="73.1" y="12.9" class="st7" width="2.9" height="20.2"/>
	<polygon class="st7" points="78.6,12.9 81.3,12.9 85.7,25.1 85.8,25.1 85.8,12.9 88.7,12.9 88.7,33.1 85.9,33.1 81.5,21 81.5,21 
		81.5,33.1 78.6,33.1 	"/>
	<path class="st7" d="M94,30.4h1.3c0.8,0,1.4-0.2,1.7-0.6c0.3-0.4,0.5-1,0.5-1.9v-9.7c0-0.8-0.2-1.4-0.5-1.8
		c-0.3-0.4-0.9-0.7-1.8-0.7H94V30.4z M91.1,12.9h4.3c1.6,0,2.9,0.5,3.8,1.4c0.9,0.9,1.3,2.2,1.3,3.8v9.4c0,1.9-0.5,3.3-1.4,4.2
		c-0.9,0.9-2.2,1.3-3.9,1.3h-4V12.9z"/>
	<polygon class="st7" points="103,12.9 111.6,12.9 111.6,15.6 105.9,15.6 105.9,21.8 110.8,21.8 110.8,24.5 105.9,24.5 105.9,33.1 
		103,33.1 	"/>
	<rect x="113.5" y="12.9" class="st7" width="2.9" height="20.2"/>
	<polygon class="st7" points="119,12.9 127.6,12.9 127.6,15.6 121.9,15.6 121.9,21.6 126.9,21.6 126.9,24.3 121.9,24.3 121.9,30.2 
		127.6,30.2 127.6,33.1 119,33.1 	"/>
	<polygon class="st7" points="129.3,12.9 132.2,12.9 132.2,30.2 138,30.2 138,33.1 129.3,33.1 	"/>
	<path class="st7" d="M142.6,30.4h1.3c0.8,0,1.4-0.2,1.7-0.6c0.3-0.4,0.5-1,0.5-1.9v-9.7c0-0.8-0.2-1.4-0.5-1.8
		c-0.3-0.4-0.9-0.7-1.8-0.7h-1.3V30.4z M139.7,12.9h4.3c1.6,0,2.9,0.5,3.8,1.4c0.9,0.9,1.3,2.2,1.3,3.8v9.4c0,1.9-0.5,3.3-1.4,4.2
		c-0.9,0.9-2.2,1.3-3.9,1.3h-4V12.9z"/>
	<g>
		<path class="st7" d="M152.6,17.5c-1.3,0-2.4-1.1-2.4-2.4c0-1.3,1.1-2.4,2.4-2.4c1.3,0,2.4,1.1,2.4,2.4
			C155,16.4,153.9,17.5,152.6,17.5z M152.6,13.2c-1,0-1.8,0.8-1.8,1.9c0,1.1,0.8,1.9,1.8,1.9c1,0,1.8-0.8,1.8-1.9
			C154.4,14,153.6,13.2,152.6,13.2z M153,16.4l-0.5-1h-0.3v1h-0.6v-2.6h1c0.5,0,0.8,0.4,0.8,0.8c0,0.4-0.2,0.6-0.5,0.7l0.5,1.1H153z
			 M152.7,14.3h-0.4v0.7h0.4c0.2,0,0.4-0.2,0.4-0.3C153,14.4,152.9,14.3,152.7,14.3z"/>
	</g>
</g>
</svg>
